<?xml version="1.0" encoding="UTF-8" standalone="no"?>
<svg
   xmlns:dc="http://purl.org/dc/elements/1.1/"
   xmlns:cc="http://creativecommons.org/ns#"
   xmlns:rdf="http://www.w3.org/1999/02/22-rdf-syntax-ns#"
   xmlns:svg="http://www.w3.org/2000/svg"
   xmlns="http://www.w3.org/2000/svg"
   xmlns:sodipodi="http://sodipodi.sourceforge.net/DTD/sodipodi-0.dtd"
   xmlns:inkscape="http://www.inkscape.org/namespaces/inkscape"
   version="1.1"
   width="600"
   height="800"
   id="svg3943"
   inkscape:version="0.48.5 r10040"
   sodipodi:docname="cover.svg">
  <metadata
     id="metadata3963">
    <rdf:RDF>
      <cc:Work
         rdf:about="">
        <dc:format>image/svg+xml</dc:format>
        <dc:type
           rdf:resource="http://purl.org/dc/dcmitype/StillImage" />
      </cc:Work>
    </rdf:RDF>
  </metadata>
  <defs
     id="defs3961" />
  <sodipodi:namedview
     pagecolor="#ffffff"
     bordercolor="#666666"
     borderopacity="1"
     objecttolerance="10"
     gridtolerance="10"
     guidetolerance="10"
     inkscape:pageopacity="0"
     inkscape:pageshadow="2"
     inkscape:window-width="640"
     inkscape:window-height="480"
     id="namedview3959"
     showgrid="false"
     inkscape:zoom="0.295"
     inkscape:cx="300"
     inkscape:cy="400"
     inkscape:window-x="0"
     inkscape:window-y="27"
     inkscape:window-maximized="0"
     inkscape:current-layer="svg3943" />
  <style
     type="text/css"
     id="style3945">
        .s0{
            fill:#f9f9f9;
            font-family:HarryP;
            font-size:72;
            line-height:125;
            text-align:center;
            text-anchor:middle;
            word-spacing:0;
        }
        .s1{
            fill:#f9f9f9;
            font-size:72;
        }
    </style>
  <rect
     width="600"
     height="800"
     x="0"
     y="0"
     fill="#000"
     id="rect3947" />
  <g
     style="font-size:72px;text-align:center;line-height:125;word-spacing:0;text-anchor:middle;fill:#f9f9f9;font-family:HarryP"
     id="text3949">
    <path
       d="m 130.99912,105.864 -1.584,16.272 -7.77599,4.176 -5.54401,-5.76 0.072,15.408 -2.73601,-4.176 -0.288,-0.576 0.43201,18.792 -2.30401,-3.6 -1.584,17.28 -5.184,-29.736 2.592,1.728 -2.73599,-17.856 3.6,1.584 -3.024,-25.272 11.08799,0 0,3.888 6.91201,-2.88 8.06399,10.728 m -8.496,14.112 -0.86399,-21.096 -5.61601,2.304 0.072,18.072 4.96801,2.592 1.43999,-1.872"
       style="fill:#f9f9f9"
       id="path4000" />
    <path
       d="m 132.16575,108.744 c 2.448,-1.67996 5.23199,-3.76795 8.352,-6.264 l 0,6.48 c 2.49599,-2.15996 4.12799,-3.23996 4.896,-3.24 0.23999,4e-5 0.40799,0.072 0.504,0.216 l 3.384,5.904 c 0.38398,0.43204 0.57598,0.86404 0.576,1.296 -2e-5,0.48004 -0.24002,0.79204 -0.72,0.936 l -6.624,3.888 0,-0.288 c 1.00799,-0.95997 1.58399,-1.84797 1.728,-2.664 -0.19201,-0.71996 -0.52801,-1.60796 -1.008,-2.664 -0.62401,-1.34396 -1.10401,-1.96796 -1.44,-1.872 -0.28801,0.048 -0.64801,0.36004 -1.08,0.936 -0.19201,7.15203 -0.072,14.20802 0.36,21.168 0.096,1.53602 0.83999,2.47201 2.232,2.808 -0.67201,1e-5 -1.70401,-0.024 -3.096,-0.072 -1.34401,-0.048 -2.35201,-0.072 -3.024,-0.072 -0.432,1e-5 -1.104,0.024 -2.016,0.072 -0.864,0.048 -1.512,0.072 -1.944,0.072 1.248,-0.52798 1.992,-0.95998 2.232,-1.296 0.192,-0.19198 0.288,-0.67198 0.288,-1.44 l 0.144,-24.048 -3.744,0.144"
       style="fill:#f9f9f9"
       id="path4002" />
    <path
       d="m 149.62012,144.744 9.936,0 c -1.488,-0.81599 -2.112,-2.11199 -1.872,-3.888 0.384,-2.87999 0.648,-6.79198 0.792,-11.736 0.144,-5.03997 0.12,-9.38397 -0.072,-13.032 l -6.48,0 c 0.336,4.65603 0.504,8.90403 0.504,12.744 0,5.08802 -0.264,9.33601 -0.792,12.744 -0.24,1.48801 -0.912,2.54401 -2.016,3.168 m 4.68,-41.256 c 0.624,0.43205 1.368,0.64805 2.232,0.648 0.192,5e-5 0.504,-0.048 0.936,-0.144 0.432,-0.096 0.744,-0.14395 0.936,-0.144 0.52799,5e-5 0.79199,2.18404 0.792,6.552 -1.392,1.34404 -3.024,2.11204 -4.896,2.304 -1.152,-1.24796 -2.088,-2.97596 -2.808,-5.184 0.096,-0.76796 0.168,-1.51196 0.216,-2.232 0.336,-1.10395 1.2,-1.70395 2.592,-1.8"
       style="fill:#f9f9f9"
       id="path4004" />
    <path
       d="m 161.55637,118.824 c 2.448,-1.67997 5.232,-3.76797 8.352,-6.264 l 0,6.48 c 0.912,-1.10397 2.06399,-2.37597 3.456,-3.816 2.01599,-1.53596 3.21599,-2.30396 3.6,-2.304 0.23999,4e-5 0.40799,0.072 0.504,0.216 l 4.104,5.904 c 0.048,0.048 0.072,7.89602 0.072,23.544 -2e-5,0.48001 -0.24001,0.79201 -0.72,0.936 l -6.624,3.888 0,-0.288 c 1.00799,-0.96 1.58399,-1.848 1.728,-2.664 -0.048,-8.06399 -0.26401,-16.46398 -0.64799,-25.2 -0.48002,-0.95997 -1.39202,-1.24797 -2.73601,-0.864 -0.14401,0.048 -0.98401,1.08003 -2.52,3.096 -0.144,5.47202 -0.024,11.32802 0.36,17.568 0.096,1.53601 0.84,2.47201 2.232,2.808 -0.67201,1e-5 -1.704,-0.024 -3.096,-0.072 -1.344,-0.048 -2.352,-0.072 -3.024,-0.072 -0.432,1e-5 -1.104,0.024 -2.016,0.072 -0.864,0.048 -1.512,0.072 -1.944,0.072 1.248,-0.52799 1.992,-0.95999 2.232,-1.296 0.192,-0.19199 0.288,-0.67199 0.288,-1.44 l 0.144,-20.448 -3.744,0.144"
       style="fill:#f9f9f9"
       id="path4006" />
    <path
       d="m 202.368,120.84 -0.936,-2.664 -5.832,-3.816 c -0.24001,-0.14396 -0.69601,-0.21596 -1.368,-0.216 -0.72001,4e-5 -1.22401,0.048 -1.512,0.144 l -8.064,6.336 c -0.672,3.69603 -1.008,7.22402 -1.008,10.584 0,2.35202 0.192,4.44001 0.576,6.264 l 7.272,6.336 3.672,-0.072 6.48,-6.552 -3.168,-4.032 -0.288,2.88 c -0.048,0.48001 -0.072,0.74401 -0.072,0.792 -0.14401,0.76801 -0.74401,1.68001 -1.8,2.736 l -2.232,2.232 c -1.24801,-0.67199 -2.06401,-1.41599 -2.448,-2.232 l -0.72,-14.256 1.008,-8.208 c 0.19199,-0.33597 0.38399,-0.50397 0.576,-0.504 2.30399,2.11203 3.76799,3.57603 4.392,4.392 0.14399,1.29603 -0.24001,2.73603 -1.152,4.32 l 6.624,-4.464"
       style="fill:#f9f9f9"
       id="path4008" />
    <path
       d="m 221.6955,122.928 -1.8,3.744 c -1.87202,-1.10398 -4.00801,-1.65598 -6.408,-1.656 -1.44001,2e-5 -2.32801,0.19202 -2.664,0.576 l 0.504,11.808 c 0.38399,0.81601 1.19999,1.56001 2.448,2.232 0.95999,-1.24799 1.60799,-2.80799 1.944,-4.68 0.048,-0.19198 0.16799,-1.41598 0.36,-3.672 l 3.168,4.032 -4.392,6.264 -3.672,0.072 -7.272,-6.336 c -0.384,-1.82398 -0.576,-3.91198 -0.576,-6.264 0,-3.35998 0.336,-6.88797 1.008,-10.584 l 8.064,-6.336 c 0.57599,-0.19196 1.05599,-0.16796 1.44,0.072 l 5.832,3.816 2.016,6.912 m -5.184,0.432 -3.672,-8.28 c -0.33601,-0.43196 -0.55201,-0.64796 -0.648,-0.648 -0.19201,4e-5 -0.38401,0.16804 -0.576,0.504 l -0.864,8.208 c 2.68799,-0.14397 4.60799,-0.072 5.76,0.216"
       style="fill:#f9f9f9"
       id="path4010" />
    <path
       d="m 266.85638,137.4 c 0.23997,1.20001 -1.08002,2.54401 -3.96001,4.032 -2.40001,1.24801 -4.36801,1.96801 -5.904,2.16 l -1.296,-0.216 c -4.848,-3.74399 -7.416,-6.14399 -7.704,-7.2 -0.096,-2.25598 0.12,-7.82398 0.648,-16.704 3.312,-2.39997 6.744,-4.22397 10.296,-5.472 l 5.11201,3.528 0.57599,0.936 c 1.05599,1.00803 1.67999,3.16803 1.872,6.48 0.096,1.68002 0.21599,5.83202 0.36001,12.456 m -6.91201,1.728 c -10e-6,-12.52798 -0.45601,-19.94397 -1.368,-22.248 l -2.304,1.368 c -0.816,0.62403 -1.344,1.27203 -1.584,1.944 l 0.36,18.936 c 0.336,0.96001 0.984,1.65601 1.944,2.088 1.43999,-0.43199 2.42399,-1.12799 2.952,-2.088"
       style="fill:#f9f9f9"
       id="path4012" />
    <path
       d="m 277.66425,122.928 c 0.67199,-0.14397 2.20799,-1.07997 4.608,-2.808 2.39998,-1.77597 4.15198,-2.66397 5.256,-2.664 0.33598,3e-5 0.67198,0.072 1.008,0.216 -0.096,0.096 -0.14402,0.21603 -0.144,0.36 -2e-5,0.096 0.024,0.16803 0.072,0.216 0.19198,0.33603 0.28798,0.52803 0.288,0.576 -2e-5,0.14403 -0.12002,0.28803 -0.36,0.432 -0.24002,-0.048 -0.48002,-0.072 -0.72,-0.072 -0.72002,3e-5 -2.30402,1.10403 -4.752,3.312 -2.44801,2.20803 -4.17601,3.43202 -5.184,3.672 0.19199,9.64801 0.45599,17.32801 0.792,23.04 1.43999,1.584 4.29598,2.784 8.568,3.6 -1.77602,0.384 -3.43202,0.576 -4.968,0.576 -1.15201,0 -4.34401,-0.624 -9.576,-1.872 -2.208,-0.528 -4.032,-0.744 -5.472,-0.648 2.976,-1.248 4.464,-2.472 4.464,-3.672 l 0.072,-21.096 c -2.4,-0.67198 -4.128,-2.32797 -5.184,-4.968 -0.768,-1.96797 -1.032,-3.57597 -0.792,-4.824 l 0.648,-3.24 c 0.768,0.43204 1.464,0.64804 2.088,0.648 l 3.312,0 0,-7.128 -2.304,0.144 c 1.344,-1.05596 3.048,-2.27995 5.112,-3.672 1.63199,-1.10395 2.71199,-1.96795 3.24,-2.592 l 0,4.32 c 1.91999,-1.29595 4.75199,-3.28795 8.496,-5.976 1.48798,-1.055948 2.44798,-1.583947 2.88,-1.584 0.19198,5.3e-5 0.35998,0.07205 0.504,0.216 l 3.384,5.904 c 0.62397,1.39205 0.93597,2.35204 0.936,2.88 -3e-5,0.57604 -0.36003,1.08004 -1.08,1.512 l -6.624,3.888 0,-0.288 c 1.00798,-0.95996 1.58398,-1.84796 1.728,-2.664 -0.28802,-1.19996 -0.69602,-2.92796 -1.224,-5.184 -0.24002,-1.10395 -0.45602,-1.63195 -0.648,-1.584 -0.33602,0.0481 -1.77602,1.17605 -4.32,3.384 -2.78401,2.44804 -4.17601,4.17604 -4.176,5.184 -10e-6,2.44804 0.024,6.60003 0.072,12.456 m -5.976,-9.072 -1.368,1.224 c -0.624,0.43203 -1.464,0.67203 -2.52,0.72 0.288,3.26403 1.584,5.49603 3.888,6.696 l 0,-8.64"
       style="fill:#f9f9f9"
       id="path4014" />
    <path
       d="m 329.01825,113.064 -4.032,0 -0.648,30.6 c -0.096,0.19201 -0.14401,0.38401 -0.144,0.576 -1e-5,0.864 1.15199,2.28 3.456,4.248 l -5.904,-2.16 c -2.304,-0.864 -3.528,-1.89599 -3.672,-3.096 l 0.36,-30.456 -6.048,0 c 4.128,-2.30396 8.25599,-6.28796 12.384,-11.952 l -0.144,9.144 3.744,0 0.648,3.096"
       style="fill:#f9f9f9"
       id="path4016" />
    <path
       d="m 351.92662,139.704 0,-27.288 -6.91199,-4.752 c -1.29602,0.43204 -2.11202,0.79204 -2.44801,1.08 -0.76801,0.67204 -2.08801,2.42404 -3.96,5.256 l -0.144,-16.92 c -0.192,-1.055946 0.336,-2.351945 1.584,-3.888 l -9.072,0.72 c 0.96,1.152055 1.44,2.328054 1.44,3.528 l -0.648,39.384 c -0.24,1.00801 -0.744,1.84801 -1.512,2.52 l 9.216,0.216 c -1.008,-0.76799 -1.392,-1.91999 -1.152,-3.456 l 0.144,-19.296 c 3.16799,-3.59996 4.96799,-5.39996 5.4,-5.4 0.23999,4e-5 0.43199,0.12004 0.576,0.36 l 1.152,3.024 c 0.14399,3.50403 0.19199,8.08803 0.144,13.752 -0.048,5.80802 -0.16801,8.85601 -0.36,9.144 -0.14401,3.07201 -1.87201,5.88001 -5.184,8.424 2.44799,-0.624 3.79199,-0.984 4.032,-1.08 2.59199,-1.05599 5.15999,-2.83199 7.704,-5.328"
       style="fill:#f9f9f9"
       id="path4018" />
    <path
       d="m 371.74237,122.928 -1.79999,3.744 c -1.87202,-1.10398 -4.00802,-1.65598 -6.40801,-1.656 -1.44,2e-5 -2.328,0.19202 -2.66399,0.576 l 0.50399,11.808 c 0.384,0.81601 1.2,1.56001 2.44801,2.232 0.95998,-1.24799 1.60798,-2.80799 1.94399,-4.68 0.048,-0.19198 0.16799,-1.41598 0.36,-3.672 l 3.168,4.032 -4.392,6.264 -3.672,0.072 -7.272,-6.336 c -0.384,-1.82398 -0.576,-3.91198 -0.57599,-6.264 -1e-5,-3.35998 0.33599,-6.88797 1.00799,-10.584 l 8.06401,-6.336 c 0.57598,-0.19196 1.05598,-0.16796 1.44,0.072 l 5.832,3.816 2.01599,6.912 m -5.184,0.432 -3.672,-8.28 c -0.336,-0.43196 -0.552,-0.64796 -0.64799,-0.648 -0.19201,4e-5 -0.38401,0.16804 -0.57601,0.504 l -0.86399,8.208 c 2.68798,-0.14397 4.60798,-0.072 5.75999,0.216"
       style="fill:#f9f9f9"
       id="path4020" />
    <path
       d="m 414.16725,149.928 c 0.096,0.048 0.16798,0.072 0.216,0.072 l -16.344,-0.144 c 2.64,-0.816 3.96,-2.256 3.96,-4.32 l -0.36,-42.408 c -0.192,-1.67995 -1.08,-2.87995 -2.664,-3.6 l 12.024,0 c -0.096,0.04805 -0.19201,0.12005 -0.288,0.216 l 0.72,0 c 6.04798,2.25605 11.87997,5.52004 17.496,9.792 0.38397,6.96003 0.57597,13.51203 0.576,19.656 -3e-5,1.68002 -0.072,4.17602 -0.216,7.488 -0.43203,1.87201 -2.47203,4.41601 -6.12,7.632 -2.01602,1.776 -4.10402,3.552 -6.264,5.328 l -2.16,0.36 -0.576,-0.072 m -4.464,-6.84 c 0.048,0.14401 0.096,0.31201 0.144,0.504 1.10399,0.76801 2.73598,1.488 4.896,2.16 0.95998,-0.528 1.99198,-1.27199 3.096,-2.232 1.29598,-1.15199 2.08798,-2.13599 2.376,-2.952 l -0.144,-29.736 c -0.48002,-1.63196 -1.80002,-3.04796 -3.96,-4.248 -1.20002,-0.57596 -3.00002,-1.46396 -5.4,-2.664 -0.28801,0.76805 -0.50401,1.96804 -0.648,3.6 -0.14401,1.63204 -0.36001,2.83204 -0.648,3.6 l 0.288,31.968"
       style="fill:#f9f9f9"
       id="path4022" />
    <path
       d="m 436.87087,118.896 -2.16,-2.88 c -0.768,-1.00797 -1.152,-2.08796 -1.152,-3.24 0,-0.43196 0.12,-0.79196 0.36001,-1.08 0.47999,-0.62396 2.83199,-2.18396 7.05599,-4.68 1.58399,1.15204 3.26399,2.42404 5.04001,3.816 2.54398,2.01604 3.69598,3.64804 3.45599,4.896 l -0.28799,16.416 2.66399,0.144 -5.184,5.832 c -1.20001,0.86401 -2.06401,1.29601 -2.592,1.296 -0.48001,1e-5 -0.64801,-0.28799 -0.504,-0.864 l 0,-2.592 -4.608,2.88 c -2.112,0.38401 -4.08,-3.79199 -5.904,-12.528 0.816,-1.63197 2.304,-2.92797 4.464,-3.888 l 4.752,-2.16 c -1.632,1.77603 -2.424,3.16803 -2.37599,4.176 -0.096,0.67202 -0.14401,1.34402 -0.14401,2.016 0,3.21602 0.696,5.76002 2.08801,7.632 0.76798,0.096 1.29598,-0.33598 1.58399,-1.296 l 0,-21.096 -1.08,0.576 c -0.24001,0.14404 -0.888,0.55204 -1.944,1.224 -1.776,1.10404 -2.664,2.08803 -2.664,2.952 l 0.64801,2.376 -1.51201,0.072"
       style="fill:#f9f9f9"
       id="path4024" />
    <path
       d="m 452.22825,108.744 c 2.448,-1.67996 5.23199,-3.76795 8.352,-6.264 l 0,6.48 c 2.49599,-2.15996 4.12799,-3.23996 4.896,-3.24 0.23999,4e-5 0.40799,0.072 0.504,0.216 l 3.384,5.904 c 0.38398,0.43204 0.57598,0.86404 0.576,1.296 -2e-5,0.48004 -0.24002,0.79204 -0.72,0.936 l -6.624,3.888 0,-0.288 c 1.00799,-0.95997 1.58399,-1.84797 1.728,-2.664 -0.19201,-0.71996 -0.52801,-1.60796 -1.008,-2.664 -0.62401,-1.34396 -1.10401,-1.96796 -1.44,-1.872 -0.28801,0.048 -0.64801,0.36004 -1.08,0.936 -0.19201,7.15203 -0.072,14.20802 0.36,21.168 0.096,1.53602 0.83999,2.47201 2.232,2.808 -0.67201,1e-5 -1.70401,-0.024 -3.096,-0.072 -1.34401,-0.048 -2.35201,-0.072 -3.024,-0.072 -0.432,1e-5 -1.104,0.024 -2.016,0.072 -0.864,0.048 -1.512,0.072 -1.944,0.072 1.248,-0.52798 1.992,-0.95998 2.232,-1.296 0.192,-0.19198 0.288,-0.67198 0.288,-1.44 l 0.144,-24.048 -3.744,0.144"
       style="fill:#f9f9f9"
       id="path4026" />
    <path
       d="m 497.83463,111.552 c -0.33603,0.14404 -0.76803,0.38404 -1.296,0.72 l -1.8,2.088 -7.84801,8.712 6.40801,18.432 c 0.57597,1.58401 1.75197,2.80801 3.52799,3.672 l -8.784,0 c -10e-6,-0.23999 0.11999,-0.64799 0.36,-1.224 0.23999,-0.57599 0.35999,-1.00799 0.36001,-1.296 -0.096,-0.38399 -0.31202,-1.07999 -0.64801,-2.088 l -4.608,-14.112 -6.62399,6.984 0,9.576 c -1e-5,1.82401 1.34399,3.696 4.03199,5.616 1.34399,0.72 2.68799,1.464 4.032,2.232 -2.16001,-0.048 -5.08801,-0.888 -8.784,-2.52 -3.696,-1.68 -5.88,-2.52 -6.55199,-2.52 -0.57601,0 -1.2,0.072 -1.872,0.216 l 1.584,-1.008 c 1.05599,-0.62399 1.58399,-1.29599 1.584,-2.016 l 0.57599,-44.28 c 0,-0.287948 -0.24,-0.647948 -0.71999,-1.08 -0.43201,-0.479947 -0.67201,-0.791947 -0.72001,-0.936 l 8.712,0 c -0.432,0.432053 -0.888,1.104052 -1.368,2.016 l -0.864,29.592 12.52801,-14.256 c 0.28797,-0.33596 0.43197,-0.59996 0.43199,-0.792 -2e-5,-0.47996 -1.27201,-1.29596 -3.816,-2.448 -0.33601,-0.048 -0.72001,-0.19196 -1.15199,-0.432 l 13.32,1.152"
       style="fill:#f9f9f9"
       id="path4028" />
    <path
       d="m 229.89956,248.992 -15.048,-0.216 c 2.64,-0.816 3.96,-2.256 3.96,-4.32 l -0.36,-38.808 c 0,-1.58395 -0.888,-2.78395 -2.664,-3.6 l 12.024,0 c -1.10401,0.86405 -1.65601,1.87205 -1.656,3.024 l 0.072,11.448 c 0.048,-0.19197 0.096,-0.28797 0.144,-0.288 0.096,0.048 0.16799,0.12003 0.216,0.216 0.57599,-1.05597 1.63199,-2.32796 3.168,-3.816 1.58399,-1.67996 2.66398,-2.92796 3.24,-3.744 l 4.248,-6.336 c 0.19198,5e-5 4.63198,-0.16795 13.32,-0.504 -2.64003,1.10405 -4.17603,1.82405 -4.608,2.16 -0.76803,0.62405 -2.56803,2.68804 -5.4,6.192 l -10.296,12.672 c 1.67999,3.02402 4.65598,7.00802 8.928,11.952 4.41597,5.13601 7.43997,9.07201 9.072,11.808 1.48797,2.544 3.47997,4.104 5.976,4.68 -2.01603,-0.096 -5.25603,-0.192 -9.72,-0.288 -0.19203,0 -1.00803,0.024 -2.448,0.072 -1.44002,0.048 -2.66402,0.072 -3.672,0.072 1.48798,-0.864 2.27998,-1.56 2.376,-2.088 0.23998,-0.624 -0.024,-1.416 -0.792,-2.376 l -13.464,-16.776 c -1e-5,1.72802 -0.024,2.18402 -0.072,1.368 l 0.072,14.112 c -1e-5,1.344 1.12799,2.472 3.384,3.384"
       style="fill:#f9f9f9"
       id="path4030" />
    <path
       d="m 251.08106,244.744 9.936,0 c -1.48801,-0.81599 -2.11201,-2.11199 -1.872,-3.888 0.38399,-2.87999 0.64799,-6.79198 0.792,-11.736 0.14399,-5.03997 0.11999,-9.38397 -0.072,-13.032 l -6.48,0 c 0.336,4.65603 0.504,8.90403 0.504,12.744 0,5.08802 -0.264,9.33601 -0.792,12.744 -0.24,1.48801 -0.912,2.54401 -2.016,3.168 m 4.68,-41.256 c 0.624,0.43205 1.368,0.64805 2.232,0.648 0.19199,5e-5 0.50399,-0.0479 0.936,-0.144 0.43199,-0.0959 0.74399,-0.14395 0.936,-0.144 0.52799,5e-5 0.79199,2.18404 0.792,6.552 -1.39201,1.34404 -3.024,2.11204 -4.896,2.304 -1.152,-1.24796 -2.088,-2.97596 -2.808,-5.184 0.096,-0.76796 0.168,-1.51196 0.216,-2.232 0.336,-1.10395 1.2,-1.70395 2.592,-1.8"
       style="fill:#f9f9f9"
       id="path4032" />
    <path
       d="m 263.01731,218.824 c 2.448,-1.67997 5.232,-3.76797 8.352,-6.264 l 0,6.48 c 0.91199,-1.10397 2.06399,-2.37597 3.456,-3.816 2.01599,-1.53596 3.21599,-2.30396 3.6,-2.304 0.23999,4e-5 0.40799,0.072 0.504,0.216 l 4.104,5.904 c 0.048,0.048 0.072,7.89602 0.072,23.544 -2e-5,0.48001 -0.24002,0.79201 -0.72,0.936 l -6.624,3.888 0,-0.288 c 1.00799,-0.96 1.58399,-1.848 1.728,-2.664 -0.048,-8.06399 -0.26401,-16.46398 -0.648,-25.2 -0.48001,-0.95997 -1.39201,-1.24797 -2.736,-0.864 -0.14401,0.048 -0.98401,1.08003 -2.52,3.096 -0.14401,5.47202 -0.024,11.32802 0.36,17.568 0.096,1.53601 0.83999,2.47201 2.232,2.808 -0.67201,1e-5 -1.70401,-0.024 -3.096,-0.072 -1.344,-0.048 -2.352,-0.072 -3.024,-0.072 -0.432,1e-5 -1.104,0.024 -2.016,0.072 -0.864,0.048 -1.512,0.072 -1.944,0.072 1.248,-0.52799 1.992,-0.95999 2.232,-1.296 0.192,-0.19199 0.288,-0.67199 0.288,-1.44 l 0.144,-20.448 -3.744,0.144"
       style="fill:#f9f9f9"
       id="path4034" />
    <path
       d="m 299.58094,229.84 c -0.096,-4.99197 -0.26402,-10.05597 -0.504,-15.192 l -5.688,-3.168 -0.864,21.096 2.16,1.872 4.896,-4.608 m 6.192,-18.072 -0.072,18.936 -0.432,17.208 c -4.41602,3.888 -8.42401,7.24799 -12.024,10.08 -1.34401,1.05599 -2.30401,1.58399 -2.88,1.584 -0.19201,-1e-5 -0.36001,-0.072 -0.504,-0.216 l -3.384,-5.904 c -0.624,-1.392 -0.936,-2.352 -0.936,-2.88 0,-0.576 0.36,-1.08 1.08,-1.512 l 6.624,-3.888 0,0.288 c -1.00801,0.96 -1.58401,1.848 -1.728,2.664 0.28799,1.2 0.69599,2.928 1.224,5.184 0.23999,1.104 0.45599,1.632 0.648,1.584 0.33599,-0.048 1.77599,-1.176 4.32,-3.384 1.15198,-1.008 1.82398,-2.04 2.016,-3.096 l 0,-2.088 c -2e-5,0.144 -0.048,-4.51199 -0.144,-13.968 l -5.472,6.552 -7.056,-4.176 -1.584,-16.272 7.344,-10.728 6.12,3.24 c -0.048,-1.39196 -0.096,-2.51996 -0.144,-3.384 0.86398,0.67204 2.35198,1.48804 4.464,2.448 1.67998,0.76804 2.51998,1.34404 2.52,1.728"
       style="fill:#f9f9f9"
       id="path4036" />
    <path
       d="m 331.30819,239.92 -7.56,0.36 0,-3.168 -5.472,2.88 -6.048,-4.392 -1.44,-21.816 8.784,-4.968 4.104,5.76 0.144,-14.76 c 0.19198,-1.05595 -0.33602,-2.35195 -1.584,-3.888 l 8.352,0 c -0.96002,1.24805 -1.44002,2.42405 -1.44,3.528 l 0.648,37.944 c 0.23998,1.00801 0.74398,1.84801 1.512,2.52 m -13.32,-25.128 -0.576,11.592 c -0.19201,4.08002 0.28799,7.24802 1.44,9.504 l 4.896,-2.304 0.072,-16.2 -3.672,-4.464 -2.16,1.872"
       style="fill:#f9f9f9"
       id="path4038" />
    <path
       d="m 351.72356,237.4 c 0.23998,1.20001 -1.08002,2.54401 -3.96,4.032 -2.40001,1.24801 -4.36801,1.96801 -5.904,2.16 l -1.296,-0.216 c -4.848,-3.74399 -7.416,-6.14399 -7.704,-7.2 -0.096,-2.25598 0.12,-7.82398 0.648,-16.704 3.312,-2.39997 6.74399,-4.22397 10.296,-5.472 l 5.112,3.528 0.576,0.936 c 1.05598,1.00803 1.67998,3.16803 1.872,6.48 0.096,1.68002 0.21598,5.83202 0.36,12.456 m -6.912,1.728 c -10e-6,-12.52798 -0.45601,-19.94397 -1.368,-22.248 l -2.304,1.368 c -0.81601,0.62403 -1.34401,1.27203 -1.584,1.944 l 0.36,18.936 c 0.33599,0.96001 0.98399,1.65601 1.944,2.088 1.43999,-0.43199 2.42399,-1.12799 2.952,-2.088"
       style="fill:#f9f9f9"
       id="path4040" />
    <path
       d="m 372.53944,213.496 c 0.47998,-0.38396 1.03198,-1.12796 1.656,-2.232 0.67198,-1.15196 1.17597,-1.84796 1.512,-2.088 2.01597,-1.53596 3.21597,-2.30396 3.6,-2.304 0.23997,4e-5 0.40797,0.072 0.504,0.216 l 4.104,5.904 c 0.048,0.048 0.072,7.41603 0.072,22.104 -3e-5,0.48001 -0.24003,0.79201 -0.72,0.936 l -6.624,3.888 0,-0.288 c 1.00797,-0.95999 1.58397,-1.84799 1.728,-2.664 -0.048,-7.58398 -0.26403,-15.50397 -0.648,-23.76 -0.33603,-0.67196 -0.88803,-1.00796 -1.656,-1.008 -0.33603,4e-5 -0.69603,0.048 -1.08,0.144 -0.52802,0.96004 -1.34402,2.20804 -2.448,3.744 l 0.072,7.92 -0.072,7.128 c -2e-5,0.14402 -0.024,0.48002 -0.072,1.008 -2e-5,2e-5 -2e-5,0.52802 0,1.584 l 0,0.648 c -2e-5,0.48002 -0.24002,0.79201 -0.72,0.936 l -6.624,3.888 0,-0.288 c 1.00798,-0.95999 1.58398,-1.84799 1.728,-2.664 -0.048,-7.58398 -0.26402,-15.50397 -0.648,-23.76 -0.33602,-0.67196 -0.88802,-1.00796 -1.656,-1.008 -0.33601,4e-5 -0.69601,0.048 -1.08,0.144 -0.67201,1.29604 -1.51201,2.80804 -2.52,4.536 -0.14401,5.13603 -0.024,10.75202 0.36,16.848 0.096,1.53602 0.83999,2.47201 2.232,2.808 -0.67201,1e-5 -1.70401,-0.024 -3.096,-0.072 -1.34401,-0.048 -2.35201,-0.072 -3.024,-0.072 -0.43201,1e-5 -1.10401,0.024 -2.016,0.072 -0.864,0.048 -1.512,0.072 -1.944,0.072 1.248,-0.52799 1.99199,-0.95998 2.232,-1.296 0.19199,-0.19198 0.28799,-0.67198 0.288,-1.44 l 0.36,-18.216 c -0.48001,-1.15196 -1.12801,-1.72796 -1.944,-1.728 -0.192,4e-5 -0.528,0.072 -1.008,0.216 -0.432,0.14404 -0.768,0.19204 -1.008,0.144 2.208,-1.19996 3.71999,-2.08796 4.536,-2.664 1.63199,-1.10396 2.90399,-2.30396 3.816,-3.6 l 0,6.48 c 0.91199,-1.58396 2.06399,-3.33596 3.456,-5.256 2.01598,-1.53596 3.21598,-2.30396 3.6,-2.304 0.23998,4e-5 0.40798,0.072 0.504,0.216 l 4.104,5.904 c 0.048,0.048 0.096,0.45604 0.144,1.224"
       style="fill:#f9f9f9"
       id="path4042" />
  </g>
  <g
     style="font-size:72px;text-align:center;line-height:125;word-spacing:0;text-anchor:middle;fill:#f9f9f9;font-family:HarryP"
     id="text3955">
    <path
       d="m 232.57931,355.576 0.288,16.56 5.688,2.592 1.44,-1.872 -0.864,-19.656 -6.552,2.376 m 0.36,42.336 5.616,-1.584 1.44,-1.872 -0.792,-15.768 -6.48,-3.312 0.216,22.536 m 15.552,-14.688 -1.584,13.392 -7.776,4.176 -0.216,0 -17.64,0.288 c 2.64,-0.816 3.96,-2.256 3.96,-4.32 l -0.36,-35.928 c -0.192,-1.67996 -1.08,-2.87996 -2.664,-3.6 l 10.44,-4.392 0.144,-0.504 7.632,-2.88 8.064,10.728 -1.584,14.832 -3.888,2.16 5.472,6.048"
       style="font-size:72px;text-align:center;line-height:125;word-spacing:0;text-anchor:middle;fill:#f9f9f9;font-family:HarryP"
       id="path3989" />
    <path
       d="m 270.30169,387.4 c 0.23998,1.20001 -1.08002,2.54401 -3.96,4.032 -2.40002,1.24801 -4.36801,1.96801 -5.904,2.16 l -1.296,-0.216 c -4.84801,-3.74399 -7.416,-6.14399 -7.704,-7.2 -0.096,-2.25598 0.12,-7.82398 0.648,-16.704 3.31199,-2.39997 6.74399,-4.22397 10.296,-5.472 l 5.112,3.528 0.576,0.936 c 1.05598,1.00803 1.67998,3.16803 1.872,6.48 0.096,1.68002 0.21598,5.83202 0.36,12.456 m -6.912,1.728 c -2e-5,-12.52798 -0.45602,-19.94397 -1.368,-22.248 l -2.304,1.368 c -0.81601,0.62403 -1.34401,1.27203 -1.584,1.944 l 0.36,18.936 c 0.33599,0.96001 0.98399,1.65601 1.944,2.088 1.43999,-0.43199 2.42399,-1.12799 2.952,-2.088"
       style="font-size:72px;text-align:center;line-height:125;word-spacing:0;text-anchor:middle;fill:#f9f9f9;font-family:HarryP"
       id="path3991" />
    <path
       d="m 290.97356,387.4 c 0.23998,1.20001 -1.08002,2.54401 -3.96,4.032 -2.40001,1.24801 -4.36801,1.96801 -5.904,2.16 l -1.296,-0.216 c -4.848,-3.74399 -7.416,-6.14399 -7.704,-7.2 -0.096,-2.25598 0.12,-7.82398 0.648,-16.704 3.312,-2.39997 6.74399,-4.22397 10.296,-5.472 l 5.112,3.528 0.576,0.936 c 1.05598,1.00803 1.67998,3.16803 1.872,6.48 0.096,1.68002 0.21598,5.83202 0.36,12.456 m -6.912,1.728 c -10e-6,-12.52798 -0.45601,-19.94397 -1.368,-22.248 l -2.304,1.368 c -0.81601,0.62403 -1.34401,1.27203 -1.584,1.944 l 0.36,18.936 c 0.33599,0.96001 0.98399,1.65601 1.944,2.088 1.43999,-0.43199 2.42399,-1.12799 2.952,-2.088"
       style="font-size:72px;text-align:center;line-height:125;word-spacing:0;text-anchor:middle;fill:#f9f9f9;font-family:HarryP"
       id="path3993" />
    <path
       d="m 320.71744,361.552 c -0.33603,0.14404 -0.76803,0.38404 -1.296,0.72 l -1.8,2.088 -7.848,8.712 6.408,18.432 c 0.57597,1.58401 1.75197,2.80801 3.528,3.672 l -8.784,0 c -2e-5,-0.23999 0.11998,-0.64799 0.36,-1.224 0.23998,-0.57599 0.35998,-1.00799 0.36,-1.296 -0.096,-0.38399 -0.31202,-1.07999 -0.648,-2.088 l -4.608,-14.112 -6.624,6.984 0,9.576 c -1e-5,1.82401 1.34399,3.696 4.032,5.616 1.34398,0.72 2.68798,1.464 4.032,2.232 -2.16002,-0.048 -5.08801,-0.888 -8.784,-2.52 -3.69601,-1.68 -5.88,-2.52 -6.552,-2.52 -0.576,0 -1.2,0.072 -1.872,0.216 l 1.584,-1.008 c 1.056,-0.62399 1.584,-1.29599 1.584,-2.016 l 0.576,-44.28 c -10e-6,-0.28795 -0.24,-0.64795 -0.72,-1.08 -0.432,-0.47995 -0.672,-0.79195 -0.72,-0.936 l 8.712,0 c -0.43201,0.43205 -0.88801,1.10405 -1.368,2.016 l -0.864,29.592 12.528,-14.256 c 0.28798,-0.33596 0.43198,-0.59996 0.432,-0.792 -2e-5,-0.47996 -1.27202,-1.29596 -3.816,-2.448 -0.33602,-0.048 -0.72002,-0.19196 -1.152,-0.432 l 13.32,1.152"
       style="font-size:72px;text-align:center;line-height:125;word-spacing:0;text-anchor:middle;fill:#f9f9f9;font-family:HarryP"
       id="path3995" />
    <path
       d="m 347.95706,371.848 0.216,-21.96 c 12.57599,5e-5 21.47998,-0.31195 26.712,-0.936 l 2.664,11.448 c -0.72003,-1.19996 -1.77603,-2.20796 -3.168,-3.024 -1.39203,-0.86396 -2.76002,-1.29596 -4.104,-1.296 l -14.256,0.144 0.072,9.576 c 2.49599,-1.53596 4.94399,-2.47196 7.344,-2.808 l 2.16,0.36 c 2.15998,1.77603 4.24798,3.55203 6.264,5.328 3.64797,3.21603 5.68797,5.76003 6.12,7.632 0.048,0.76802 -3e-5,1.75202 -0.144,2.952 -0.096,1.34402 -0.14403,2.30402 -0.144,2.88 -3e-5,4.27201 -0.024,7.05601 -0.072,8.352 -4.22403,3.21601 -10.77602,6.48 -19.656,9.792 l -1.8,0 -6.408,-7.992 c -0.768,-0.76799 -1.392,-1.89599 -1.872,-3.384 l 10.008,-7.704 c -1.24801,1.68002 -1.87201,3.14402 -1.872,4.392 -10e-6,0.33601 0.048,0.67201 0.144,1.008 -0.048,0.19201 -0.072,0.40801 -0.072,0.648 -10e-6,0.76801 0.83999,3.38401 2.52,7.848 1.77599,-0.47999 4.31998,-1.34399 7.632,-2.592 1.29598,-0.86399 2.13598,-1.96799 2.52,-3.312 l 0.144,-16.776 c -0.28802,-0.81597 -1.05602,-1.77597 -2.304,-2.88 -1.20002,-1.10397 -2.25602,-1.87197 -3.168,-2.304 -3.69601,1.20003 -6.12001,2.52003 -7.272,3.96 l 0,0.936 0.576,2.088 -8.424,-1.872 -0.072,-0.504 -0.288,0"
       style="font-size:72px;text-align:center;line-height:125;word-spacing:0;text-anchor:middle;fill:#f9f9f9;font-family:HarryP"
       id="path3997" />
  </g>
  <g
     style="font-size:72px;text-align:center;line-height:125;word-spacing:0;text-anchor:middle;fill:#f9f9f9;font-family:HarryP"
     id="text3957">
    <path
       d="m 179.32462,686.68 -2.736,-4.176 -0.288,-0.576 0.43201,18.792 -2.30401,-3.6 -1.584,17.28 -5.184,-29.736 2.592,1.728 -2.736,-17.856 3.6,1.584 -2.016,-17.136 -0.864,-1.44 c -0.384,-0.52795 -0.816,-0.86395 -1.296,-1.008 l 1.44,0 11.448,-0.864 1.584,0.144 c -0.72001,0.19205 -1.08001,1.17605 -1.08,2.952 -1e-5,0.19205 0.16799,0.72005 0.504,1.584 l 9.504,24.12 10.368,-23.688 c 0.57597,-1.29595 0.86397,-2.08795 0.86401,-2.376 -4e-5,-0.95995 -0.024,-1.51195 -0.072,-1.656 -0.19204,-0.62395 -0.76804,-0.98395 -1.72801,-1.08 l 14.328,0 c -0.28804,0.096 -0.91204,1.00805 -1.872,2.736 l -2.088,16.992 3.6,-1.584 -2.736,17.856 2.59201,-1.728 -5.18401,29.736 -1.584,-17.28 -2.30399,3.6 0.43199,-18.792 -0.28799,0.576 -2.73601,4.176 0.144,-20.664 -11.88,24.552 -10.944,-20.664 0.072,17.496"
       style="font-size:72px;text-align:center;line-height:125;word-spacing:0;text-anchor:middle;fill:#f9f9f9;font-family:HarryP"
       id="path3966" />
    <path
       d="m 216.55762,694.744 9.936,0 c -1.488,-0.81599 -2.112,-2.11199 -1.872,-3.888 0.384,-2.87999 0.648,-6.79198 0.792,-11.736 0.144,-5.03997 0.12,-9.38397 -0.072,-13.032 l -6.48,0 c 0.336,4.65603 0.504,8.90403 0.504,12.744 0,5.08802 -0.264,9.33601 -0.792,12.744 -0.24,1.48801 -0.912,2.54401 -2.016,3.168 m 4.68,-41.256 c 0.624,0.43205 1.368,0.64805 2.232,0.648 0.192,5e-5 0.504,-0.048 0.936,-0.144 0.432,-0.096 0.744,-0.14395 0.936,-0.144 0.52799,5e-5 0.79199,2.18404 0.792,6.552 -1.392,1.34404 -3.024,2.11204 -4.896,2.304 -1.152,-1.24796 -2.088,-2.97596 -2.808,-5.184 0.096,-0.76796 0.168,-1.51196 0.216,-2.232 0.336,-1.10395 1.2,-1.70395 2.592,-1.8"
       style="font-size:72px;text-align:center;line-height:125;word-spacing:0;text-anchor:middle;fill:#f9f9f9;font-family:HarryP"
       id="path3968" />
    <path
       d="m 233.60587,659.032 -3.24,9.432 c 1.92,-2.63997 4.008,-3.88796 6.264,-3.744 l 7.272,-1.584 c -0.81601,3.64803 -5.496,11.06403 -14.04,22.248 l 19.368,-0.288 3.24,-9.216 c -2.01602,2.40002 -4.20001,3.76802 -6.552,4.104 l -7.776,1.152 c 2.97599,-3.07198 5.42399,-6.26397 7.344,-9.576 1.72799,-2.97597 3.91198,-7.63196 6.552,-13.968 l -18.432,1.44"
       style="font-size:72px;text-align:center;line-height:125;word-spacing:0;text-anchor:middle;fill:#f9f9f9;font-family:HarryP"
       id="path3970" />
    <path
       d="m 260.94787,688.552 c 0.48,0.96001 1.392,1.24801 2.736,0.864 0.14399,-0.048 0.98399,-1.07999 2.52,-3.096 0.14399,-5.47198 0.024,-11.32797 -0.35999,-17.568 -0.096,-1.53597 -0.84002,-2.47197 -2.23201,-2.808 0.67199,3e-5 1.67999,0.024 3.024,0.072 1.39199,0.048 2.42399,0.072 3.096,0.072 0.43199,3e-5 1.07999,-0.024 1.94401,-0.072 0.91198,-0.048 1.58397,-0.072 2.01599,-0.072 -1.10401,0.48003 -1.72801,0.79203 -1.87199,0.936 -0.43202,0.33603 -0.64802,0.93603 -0.64801,1.8 l -0.144,20.448 c -0.048,0.28801 -0.072,0.57601 -0.072,0.864 -1e-5,2.25601 1.27199,3.84001 3.81601,4.752 -1.87202,0.048 -4.65602,0.21601 -8.35201,0.504 l 0,-6.48 c -0.91201,1.10401 -2.06401,2.37601 -3.45599,3.816 -2.01601,1.53601 -3.21601,2.30401 -3.60001,2.304 -0.24,10e-6 -0.408,-0.072 -0.504,-0.216 l -4.104,-5.904 c -0.096,-0.096 -0.144,-7.36798 -0.144,-21.816 0,-0.33597 0.12,-0.50397 0.36,-0.504 0.48,3e-5 1.296,0.48003 2.448,1.44 2.064,1.72803 3.048,2.61603 2.952,2.664 0,3.79203 0.192,9.79202 0.576,18"
       style="font-size:72px;text-align:center;line-height:125;word-spacing:0;text-anchor:middle;fill:#f9f9f9;font-family:HarryP"
       id="path3972" />
    <path
       d="m 274.33762,668.824 c 2.448,-1.67997 5.232,-3.76797 8.352,-6.264 l 0,6.48 c 0.912,-1.10397 2.06399,-2.37597 3.456,-3.816 2.01599,-1.53596 3.21599,-2.30396 3.60001,-2.304 0.23998,4e-5 0.40798,0.072 0.50399,0.216 l 4.10401,5.904 c 0.048,0.048 0.072,7.89602 0.072,23.544 -3e-5,0.48001 -0.24002,0.79201 -0.72001,0.936 l -6.624,3.888 0,-0.288 c 1.00799,-0.96 1.58399,-1.848 1.728,-2.664 -0.048,-8.06399 -0.26401,-16.46398 -0.64799,-25.2 -0.48002,-0.95997 -1.39202,-1.24797 -2.736,-0.864 -0.14402,0.048 -0.98402,1.08003 -2.52001,3.096 -0.144,5.47202 -0.024,11.32802 0.36,17.568 0.096,1.53601 0.84,2.47201 2.232,2.808 -0.67201,10e-6 -1.704,-0.024 -3.09599,-0.072 -1.34401,-0.048 -2.35201,-0.072 -3.024,-0.072 -0.43201,10e-6 -1.10401,0.024 -2.01601,0.072 -0.864,0.048 -1.512,0.072 -1.944,0.072 1.248,-0.52799 1.992,-0.95999 2.23201,-1.296 0.19199,-0.19199 0.28799,-0.67199 0.288,-1.44 l 0.14399,-20.448 -3.744,0.144"
       style="font-size:72px;text-align:center;line-height:125;word-spacing:0;text-anchor:middle;fill:#f9f9f9;font-family:HarryP"
       id="path3974" />
    <path
       d="m 296.57325,694.744 9.936,0 c -1.48801,-0.81599 -2.11201,-2.11199 -1.872,-3.888 0.38399,-2.87999 0.64799,-6.79198 0.792,-11.736 0.14399,-5.03997 0.11999,-9.38397 -0.072,-13.032 l -6.48,0 c 0.336,4.65603 0.504,8.90403 0.504,12.744 0,5.08802 -0.264,9.33601 -0.792,12.744 -0.24,1.48801 -0.912,2.54401 -2.016,3.168 m 4.68,-41.256 c 0.62399,0.43205 1.36799,0.64805 2.232,0.648 0.19199,5e-5 0.50399,-0.048 0.936,-0.144 0.43199,-0.096 0.74399,-0.14395 0.936,-0.144 0.52799,5e-5 0.79199,2.18404 0.792,6.552 -1.39201,1.34404 -3.02401,2.11204 -4.896,2.304 -1.152,-1.24796 -2.088,-2.97596 -2.808,-5.184 0.096,-0.76796 0.168,-1.51196 0.216,-2.232 0.336,-1.10395 1.2,-1.70395 2.592,-1.8"
       style="font-size:72px;text-align:center;line-height:125;word-spacing:0;text-anchor:middle;fill:#f9f9f9;font-family:HarryP"
       id="path3976" />
    <path
       d="m 324.0615,679.336 2.016,-1.152 0.288,-0.144 -9.144,0.216 1.728,-1.008 -8.352,-0.648 14.4,-2.232 -0.792,1.152 8.712,-1.152 -0.792,1.512 8.928,-0.936 0,4.32 -16.992,0.072"
       style="font-size:72px;text-align:center;line-height:125;word-spacing:0;text-anchor:middle;fill:#f9f9f9;font-family:HarryP"
       id="path3978" />
    <path
       d="m 361.17187,688.408 c -0.38401,0.28801 -1.92001,1.46401 -4.608,3.528 -3.02401,2.30401 -5.016,3.456 -5.976,3.456 -0.144,0 -0.24,-0.048 -0.288,-0.144 l -4.824,-5.904 c -0.624,-1.39199 -0.936,-2.35199 -0.936,-2.88 0,-0.57599 0.36,-1.07999 1.08,-1.512 l 1.44,-0.864 3.168,-0.72 c -0.384,0.38402 -0.576,0.86402 -0.57599,1.44 -1e-5,0.19201 0.048,0.62401 0.144,1.296 0.14399,0.62401 0.19199,1.05601 0.14399,1.296 0.144,0.57601 0.792,1.32001 1.944,2.232 1.152,0.86401 1.99199,1.22401 2.52,1.08 -10e-6,-0.52799 0.45599,-1.36799 1.36801,-2.52 l -0.36001,0.072 c 0.19199,-0.14399 0.28799,-0.35999 0.28801,-0.648 -2e-5,-0.62399 -1.87202,-3.07198 -5.61601,-7.344 -3.696,-4.31998 -5.544,-6.67197 -5.544,-7.056 0,-0.23997 0.096,-0.40797 0.288,-0.504 l 0.648,-0.72 c 0.384,-0.28797 1.92,-1.46397 4.608,-3.528 3.024,-2.30397 5.01599,-3.45597 5.976,-3.456 0.14399,3e-5 0.23999,0.048 0.288,0.144 l 4.824,5.904 c 0.62399,1.39203 0.93599,2.35203 0.936,2.88 -10e-6,0.57603 -0.36001,1.08002 -1.08,1.512 l -5.18399,1.152 0,-0.288 c 0.38398,-0.38398 0.57598,-0.88798 0.57599,-1.512 -10e-6,-0.23997 -0.072,-0.69597 -0.216,-1.368 -0.096,-0.67197 -0.12001,-1.15197 -0.072,-1.44 -0.14401,-0.57597 -0.60001,-1.10397 -1.368,-1.584 -0.72001,-0.52797 -1.39201,-0.79197 -2.01599,-0.792 -0.52801,3e-5 -1.05601,0.31203 -1.584,0.936 -0.52801,0.62403 -0.79201,1.22403 -0.79201,1.8 0,0.33603 0.096,0.62403 0.288,0.864 1.488,1.92002 4.00799,4.80002 7.56,8.64 2.49599,2.68802 3.74399,4.46401 3.74401,5.328 -2e-5,0.33601 -0.12002,0.60001 -0.36,0.792 l -0.43201,0.072 0,0.36"
       style="font-size:72px;text-align:center;line-height:125;word-spacing:0;text-anchor:middle;fill:#f9f9f9;font-family:HarryP"
       id="path3980" />
    <path
       d="m 366.83962,668.896 -2.16,-2.88 c -0.768,-1.00797 -1.152,-2.08796 -1.152,-3.24 0,-0.43196 0.12,-0.79196 0.36001,-1.08 0.47999,-0.62396 2.83199,-2.18396 7.05599,-4.68 1.58399,1.15204 3.26399,2.42404 5.04001,3.816 2.54398,2.01604 3.69598,3.64804 3.45599,4.896 l -0.28799,16.416 2.66399,0.144 -5.184,5.832 c -1.20001,0.86401 -2.06401,1.29601 -2.592,1.296 -0.48001,10e-6 -0.64801,-0.28799 -0.504,-0.864 l 0,-2.592 -4.608,2.88 c -2.112,0.38401 -4.08,-3.79199 -5.904,-12.528 0.816,-1.63197 2.304,-2.92797 4.464,-3.888 l 4.752,-2.16 c -1.632,1.77603 -2.424,3.16803 -2.37599,4.176 -0.096,0.67202 -0.14401,1.34402 -0.14401,2.016 0,3.21602 0.696,5.76002 2.08801,7.632 0.76798,0.096 1.29598,-0.33598 1.58399,-1.296 l 0,-21.096 -1.08,0.576 c -0.24001,0.14404 -0.888,0.55204 -1.944,1.224 -1.776,1.10404 -2.664,2.08803 -2.664,2.952 l 0.64801,2.376 -1.51201,0.072"
       style="font-size:72px;text-align:center;line-height:125;word-spacing:0;text-anchor:middle;fill:#f9f9f9;font-family:HarryP"
       id="path3982" />
    <path
       d="m 402.141,663.496 c 0.47998,-0.38396 1.03198,-1.12796 1.656,-2.232 0.67198,-1.15196 1.17598,-1.84796 1.512,-2.088 2.01597,-1.53596 3.21597,-2.30396 3.6,-2.304 0.23997,4e-5 0.40797,0.072 0.504,0.216 l 4.104,5.904 c 0.048,0.048 0.072,7.41603 0.072,22.104 -3e-5,0.48001 -0.24003,0.79201 -0.72,0.936 l -6.624,3.888 0,-0.288 c 1.00797,-0.95999 1.58397,-1.84799 1.728,-2.664 -0.048,-7.58398 -0.26403,-15.50397 -0.648,-23.76 -0.33602,-0.67196 -0.88802,-1.00796 -1.656,-1.008 -0.33602,4e-5 -0.69602,0.048 -1.08,0.144 -0.52802,0.96004 -1.34402,2.20804 -2.448,3.744 l 0.072,7.92 -0.072,7.128 c -2e-5,0.14402 -0.024,0.48002 -0.072,1.008 -2e-5,2e-5 -2e-5,0.52802 0,1.584 l 0,0.648 c -2e-5,0.48002 -0.24002,0.79201 -0.72,0.936 l -6.624,3.888 0,-0.288 c 1.00799,-0.95999 1.58399,-1.84799 1.728,-2.664 -0.048,-7.58398 -0.26401,-15.50397 -0.648,-23.76 -0.33601,-0.67196 -0.88801,-1.00796 -1.656,-1.008 -0.33601,4e-5 -0.69601,0.048 -1.08,0.144 -0.67201,1.29604 -1.51201,2.80804 -2.52,4.536 -0.14401,5.13603 -0.024,10.75202 0.36,16.848 0.096,1.53602 0.83999,2.47201 2.232,2.808 -0.67201,10e-6 -1.70401,-0.024 -3.096,-0.072 -1.34401,-0.048 -2.35201,-0.072 -3.024,-0.072 -0.432,10e-6 -1.104,0.024 -2.016,0.072 -0.864,0.048 -1.512,0.072 -1.944,0.072 1.248,-0.52799 1.992,-0.95998 2.232,-1.296 0.192,-0.19198 0.288,-0.67198 0.288,-1.44 l 0.36,-18.216 c -0.48,-1.15196 -1.128,-1.72796 -1.944,-1.728 -0.192,4e-5 -0.528,0.072 -1.008,0.216 -0.432,0.14404 -0.768,0.19204 -1.008,0.144 2.208,-1.19996 3.72,-2.08796 4.536,-2.664 1.63199,-1.10396 2.90399,-2.30396 3.816,-3.6 l 0,6.48 c 0.91199,-1.58396 2.06399,-3.33596 3.456,-5.256 2.01599,-1.53596 3.21599,-2.30396 3.6,-2.304 0.23998,4e-5 0.40798,0.072 0.504,0.216 l 4.104,5.904 c 0.048,0.048 0.096,0.45604 0.144,1.224"
       style="font-size:72px;text-align:center;line-height:125;word-spacing:0;text-anchor:middle;fill:#f9f9f9;font-family:HarryP"
       id="path3984" />
    <path
       d="m 419.574,668.896 -2.16,-2.88 c -0.768,-1.00797 -1.152,-2.08796 -1.152,-3.24 0,-0.43196 0.12,-0.79196 0.36,-1.08 0.48,-0.62396 2.832,-2.18396 7.056,-4.68 1.58399,1.15204 3.26399,2.42404 5.04,3.816 2.54398,2.01604 3.69598,3.64804 3.456,4.896 l -0.288,16.416 2.664,0.144 -5.184,5.832 c -1.20001,0.86401 -2.06401,1.29601 -2.592,1.296 -0.48001,10e-6 -0.64801,-0.28799 -0.504,-0.864 l 0,-2.592 -4.608,2.88 c -2.112,0.38401 -4.08,-3.79199 -5.904,-12.528 0.816,-1.63197 2.304,-2.92797 4.464,-3.888 l 4.752,-2.16 c -1.63201,1.77603 -2.42401,3.16803 -2.376,4.176 -0.096,0.67202 -0.14401,1.34402 -0.144,2.016 -1e-5,3.21602 0.69599,5.76002 2.088,7.632 0.76799,0.096 1.29599,-0.33598 1.584,-1.296 l 0,-21.096 -1.08,0.576 c -0.24001,0.14404 -0.88801,0.55204 -1.944,1.224 -1.77601,1.10404 -2.66401,2.08803 -2.664,2.952 l 0.648,2.376 -1.512,0.072"
       style="font-size:72px;text-align:center;line-height:125;word-spacing:0;text-anchor:middle;fill:#f9f9f9;font-family:HarryP"
       id="path3986" />
  </g>
</svg>
